<mxfile host="app.diagrams.net" modified="2024-03-15T22:54:27.752Z" agent="Mozilla/5.0 (Windows NT 10.0; Win64; x64) AppleWebKit/537.36 (KHTML, like Gecko) Chrome/122.0.0.0 Safari/537.36" etag="f1s5k300juPVstq3HrFH" version="24.0.7" type="device">
  <diagram name="Страница — 1" id="kF0EPSP_DVAli1l86mHS">
    <mxGraphModel dx="1450" dy="930" grid="0" gridSize="10" guides="1" tooltips="1" connect="1" arrows="1" fold="1" page="0" pageScale="1" pageWidth="827" pageHeight="1169" math="0" shadow="0">
      <root>
        <mxCell id="0" />
        <mxCell id="1" parent="0" />
        <mxCell id="QwzSk42xVicqDJRy7m8V-15" value="&lt;font style=&quot;font-size: 14px;&quot;&gt;Интерфейс пользователя&lt;/font&gt;" style="shape=umlLifeline;perimeter=lifelinePerimeter;whiteSpace=wrap;html=1;container=1;dropTarget=0;collapsible=0;recursiveResize=0;outlineConnect=0;portConstraint=eastwest;newEdgeStyle={&quot;curved&quot;:0,&quot;rounded&quot;:0};fontSize=16;fillColor=#fff2cc;strokeColor=#d6b656;rounded=1;" parent="1" vertex="1">
          <mxGeometry x="-92" y="-81" width="100" height="1108" as="geometry" />
        </mxCell>
        <mxCell id="QwzSk42xVicqDJRy7m8V-24" value="" style="html=1;points=[[0,0,0,0,5],[0,1,0,0,-5],[1,0,0,0,5],[1,1,0,0,-5]];perimeter=orthogonalPerimeter;outlineConnect=0;targetShapes=umlLifeline;portConstraint=eastwest;newEdgeStyle={&quot;curved&quot;:0,&quot;rounded&quot;:0};fontSize=16;fillColor=#ffe6cc;strokeColor=#d79b00;" parent="QwzSk42xVicqDJRy7m8V-15" vertex="1">
          <mxGeometry x="44" y="69" width="10" height="47" as="geometry" />
        </mxCell>
        <mxCell id="QwzSk42xVicqDJRy7m8V-27" value="" style="html=1;points=[[0,0,0,0,5],[0,1,0,0,-5],[1,0,0,0,5],[1,1,0,0,-5]];perimeter=orthogonalPerimeter;outlineConnect=0;targetShapes=umlLifeline;portConstraint=eastwest;newEdgeStyle={&quot;curved&quot;:0,&quot;rounded&quot;:0};fontSize=16;fillColor=#ffe6cc;strokeColor=#d79b00;" parent="QwzSk42xVicqDJRy7m8V-15" vertex="1">
          <mxGeometry x="44" y="141" width="10" height="41" as="geometry" />
        </mxCell>
        <mxCell id="QwzSk42xVicqDJRy7m8V-41" value="" style="html=1;points=[[0,0,0,0,5],[0,1,0,0,-5],[1,0,0,0,5],[1,1,0,0,-5]];perimeter=orthogonalPerimeter;outlineConnect=0;targetShapes=umlLifeline;portConstraint=eastwest;newEdgeStyle={&quot;curved&quot;:0,&quot;rounded&quot;:0};fontSize=16;fillColor=#ffe6cc;strokeColor=#d79b00;" parent="QwzSk42xVicqDJRy7m8V-15" vertex="1">
          <mxGeometry x="44" y="209" width="10" height="882" as="geometry" />
        </mxCell>
        <mxCell id="QwzSk42xVicqDJRy7m8V-113" value="" style="html=1;points=[[0,0,0,0,5],[0,1,0,0,-5],[1,0,0,0,5],[1,1,0,0,-5]];perimeter=orthogonalPerimeter;outlineConnect=0;targetShapes=umlLifeline;portConstraint=eastwest;newEdgeStyle={&quot;curved&quot;:0,&quot;rounded&quot;:0};fontSize=16;fillColor=#ffe6cc;strokeColor=#d79b00;" parent="QwzSk42xVicqDJRy7m8V-15" vertex="1">
          <mxGeometry x="50" y="1010" width="10" height="40" as="geometry" />
        </mxCell>
        <mxCell id="QwzSk42xVicqDJRy7m8V-114" value="Перейти в личный кабинет" style="html=1;align=left;spacingLeft=2;endArrow=block;rounded=0;edgeStyle=orthogonalEdgeStyle;curved=0;rounded=0;fontSize=12;startSize=8;endSize=8;" parent="QwzSk42xVicqDJRy7m8V-15" edge="1">
          <mxGeometry relative="1" as="geometry">
            <mxPoint x="54" y="1006" as="sourcePoint" />
            <Array as="points">
              <mxPoint x="84" y="1036" />
            </Array>
            <mxPoint x="59" y="1036" as="targetPoint" />
          </mxGeometry>
        </mxCell>
        <mxCell id="QwzSk42xVicqDJRy7m8V-16" value="" style="shape=umlLifeline;perimeter=lifelinePerimeter;whiteSpace=wrap;html=1;container=1;dropTarget=0;collapsible=0;recursiveResize=0;outlineConnect=0;portConstraint=eastwest;newEdgeStyle={&quot;curved&quot;:0,&quot;rounded&quot;:0};participant=umlActor;fontSize=16;" parent="1" vertex="1">
          <mxGeometry x="-319" y="-76" width="20" height="1102" as="geometry" />
        </mxCell>
        <mxCell id="QwzSk42xVicqDJRy7m8V-23" value="" style="html=1;points=[[0,0,0,0,5],[0,1,0,0,-5],[1,0,0,0,5],[1,1,0,0,-5]];perimeter=orthogonalPerimeter;outlineConnect=0;targetShapes=umlLifeline;portConstraint=eastwest;newEdgeStyle={&quot;curved&quot;:0,&quot;rounded&quot;:0};fontSize=16;fillColor=#ffe6cc;strokeColor=#d79b00;" parent="QwzSk42xVicqDJRy7m8V-16" vertex="1">
          <mxGeometry x="5" y="64" width="10" height="1025" as="geometry" />
        </mxCell>
        <mxCell id="QwzSk42xVicqDJRy7m8V-17" value="Валидатор на уровне интерфейса" style="shape=umlLifeline;perimeter=lifelinePerimeter;whiteSpace=wrap;html=1;container=1;dropTarget=0;collapsible=0;recursiveResize=0;outlineConnect=0;portConstraint=eastwest;newEdgeStyle={&quot;curved&quot;:0,&quot;rounded&quot;:0};fontSize=11;fillColor=#fff2cc;strokeColor=#d6b656;rounded=1;" parent="1" vertex="1">
          <mxGeometry x="197" y="-81" width="100" height="1102" as="geometry" />
        </mxCell>
        <mxCell id="QwzSk42xVicqDJRy7m8V-33" value="" style="html=1;points=[[0,0,0,0,5],[0,1,0,0,-5],[1,0,0,0,5],[1,1,0,0,-5]];perimeter=orthogonalPerimeter;outlineConnect=0;targetShapes=umlLifeline;portConstraint=eastwest;newEdgeStyle={&quot;curved&quot;:0,&quot;rounded&quot;:0};fontSize=16;fillColor=#ffe6cc;strokeColor=#d79b00;" parent="QwzSk42xVicqDJRy7m8V-17" vertex="1">
          <mxGeometry x="45" y="222" width="10" height="39" as="geometry" />
        </mxCell>
        <mxCell id="QwzSk42xVicqDJRy7m8V-18" value="Обработчик команд" style="shape=umlLifeline;perimeter=lifelinePerimeter;whiteSpace=wrap;html=1;container=1;dropTarget=0;collapsible=0;recursiveResize=0;outlineConnect=0;portConstraint=eastwest;newEdgeStyle={&quot;curved&quot;:0,&quot;rounded&quot;:0};fontSize=16;fillColor=#fff2cc;strokeColor=#d6b656;rounded=1;" parent="1" vertex="1">
          <mxGeometry x="486" y="-81" width="100" height="1101" as="geometry" />
        </mxCell>
        <mxCell id="QwzSk42xVicqDJRy7m8V-47" value="" style="html=1;points=[[0,0,0,0,5],[0,1,0,0,-5],[1,0,0,0,5],[1,1,0,0,-5]];perimeter=orthogonalPerimeter;outlineConnect=0;targetShapes=umlLifeline;portConstraint=eastwest;newEdgeStyle={&quot;curved&quot;:0,&quot;rounded&quot;:0};fontSize=16;fillColor=#ffe6cc;strokeColor=#d79b00;" parent="QwzSk42xVicqDJRy7m8V-18" vertex="1">
          <mxGeometry x="45" y="504" width="10" height="385" as="geometry" />
        </mxCell>
        <mxCell id="QwzSk42xVicqDJRy7m8V-19" value="Валидатор на уровне сервера" style="shape=umlLifeline;perimeter=lifelinePerimeter;whiteSpace=wrap;html=1;container=1;dropTarget=0;collapsible=0;recursiveResize=0;outlineConnect=0;portConstraint=eastwest;newEdgeStyle={&quot;curved&quot;:0,&quot;rounded&quot;:0};fontSize=12;fillColor=#fff2cc;strokeColor=#d6b656;rounded=1;" parent="1" vertex="1">
          <mxGeometry x="775" y="-81" width="100" height="1098" as="geometry" />
        </mxCell>
        <mxCell id="QwzSk42xVicqDJRy7m8V-50" value="" style="html=1;points=[[0,0,0,0,5],[0,1,0,0,-5],[1,0,0,0,5],[1,1,0,0,-5]];perimeter=orthogonalPerimeter;outlineConnect=0;targetShapes=umlLifeline;portConstraint=eastwest;newEdgeStyle={&quot;curved&quot;:0,&quot;rounded&quot;:0};fontSize=16;fillColor=#ffe6cc;strokeColor=#d79b00;" parent="QwzSk42xVicqDJRy7m8V-19" vertex="1">
          <mxGeometry x="45" y="519" width="10" height="242" as="geometry" />
        </mxCell>
        <mxCell id="QwzSk42xVicqDJRy7m8V-52" value="Уведомить об успешной валидации" style="html=1;verticalAlign=bottom;endArrow=open;dashed=1;endSize=8;curved=0;rounded=0;exitX=0;exitY=1;exitDx=0;exitDy=-5;fontSize=12;" parent="QwzSk42xVicqDJRy7m8V-19" edge="1">
          <mxGeometry relative="1" as="geometry">
            <mxPoint x="-234" y="748.9999999999993" as="targetPoint" />
            <mxPoint x="45" y="748.9999999999993" as="sourcePoint" />
          </mxGeometry>
        </mxCell>
        <mxCell id="QwzSk42xVicqDJRy7m8V-20" value="&lt;font style=&quot;font-size: 13px;&quot;&gt;Коннектор с базой данных&lt;/font&gt;" style="shape=umlLifeline;perimeter=lifelinePerimeter;whiteSpace=wrap;html=1;container=1;dropTarget=0;collapsible=0;recursiveResize=0;outlineConnect=0;portConstraint=eastwest;newEdgeStyle={&quot;curved&quot;:0,&quot;rounded&quot;:0};fontSize=16;fillColor=#fff2cc;strokeColor=#d6b656;rounded=1;" parent="1" vertex="1">
          <mxGeometry x="1064" y="-81" width="100" height="1102" as="geometry" />
        </mxCell>
        <mxCell id="QwzSk42xVicqDJRy7m8V-56" value="" style="html=1;points=[[0,0,0,0,5],[0,1,0,0,-5],[1,0,0,0,5],[1,1,0,0,-5]];perimeter=orthogonalPerimeter;outlineConnect=0;targetShapes=umlLifeline;portConstraint=eastwest;newEdgeStyle={&quot;curved&quot;:0,&quot;rounded&quot;:0};fontSize=16;fillColor=#ffe6cc;strokeColor=#d79b00;" parent="QwzSk42xVicqDJRy7m8V-20" vertex="1">
          <mxGeometry x="45" y="530" width="10" height="33" as="geometry" />
        </mxCell>
        <mxCell id="wxKLY9BmaaI-4q21X9Z2-7" value="" style="html=1;points=[[0,0,0,0,5],[0,1,0,0,-5],[1,0,0,0,5],[1,1,0,0,-5]];perimeter=orthogonalPerimeter;outlineConnect=0;targetShapes=umlLifeline;portConstraint=eastwest;newEdgeStyle={&quot;curved&quot;:0,&quot;rounded&quot;:0};fillColor=#ffe6cc;strokeColor=#d79b00;" parent="QwzSk42xVicqDJRy7m8V-20" vertex="1">
          <mxGeometry x="46" y="806" width="10" height="49" as="geometry" />
        </mxCell>
        <mxCell id="QwzSk42xVicqDJRy7m8V-21" value="База данных" style="shape=umlLifeline;perimeter=lifelinePerimeter;whiteSpace=wrap;html=1;container=1;dropTarget=0;collapsible=0;recursiveResize=0;outlineConnect=0;portConstraint=eastwest;newEdgeStyle={&quot;curved&quot;:0,&quot;rounded&quot;:0};fontSize=16;fillColor=#fff2cc;strokeColor=#d6b656;rounded=1;" parent="1" vertex="1">
          <mxGeometry x="1353" y="-81" width="100" height="1098" as="geometry" />
        </mxCell>
        <mxCell id="QwzSk42xVicqDJRy7m8V-59" value="" style="html=1;points=[[0,0,0,0,5],[0,1,0,0,-5],[1,0,0,0,5],[1,1,0,0,-5]];perimeter=orthogonalPerimeter;outlineConnect=0;targetShapes=umlLifeline;portConstraint=eastwest;newEdgeStyle={&quot;curved&quot;:0,&quot;rounded&quot;:0};fontSize=16;fillColor=#ffe6cc;strokeColor=#d79b00;" parent="QwzSk42xVicqDJRy7m8V-21" vertex="1">
          <mxGeometry x="46" y="537" width="10" height="80" as="geometry" />
        </mxCell>
        <mxCell id="wxKLY9BmaaI-4q21X9Z2-10" value="" style="html=1;points=[[0,0,0,0,5],[0,1,0,0,-5],[1,0,0,0,5],[1,1,0,0,-5]];perimeter=orthogonalPerimeter;outlineConnect=0;targetShapes=umlLifeline;portConstraint=eastwest;newEdgeStyle={&quot;curved&quot;:0,&quot;rounded&quot;:0};fillColor=#ffe6cc;strokeColor=#d79b00;" parent="QwzSk42xVicqDJRy7m8V-21" vertex="1">
          <mxGeometry x="46" y="809" width="10" height="33" as="geometry" />
        </mxCell>
        <mxCell id="QwzSk42xVicqDJRy7m8V-26" value="Отобразить форму регистрации" style="html=1;verticalAlign=bottom;endArrow=open;dashed=1;endSize=8;curved=0;rounded=0;exitX=0;exitY=1;exitDx=0;exitDy=-5;fontSize=12;" parent="1" source="QwzSk42xVicqDJRy7m8V-24" target="QwzSk42xVicqDJRy7m8V-23" edge="1">
          <mxGeometry relative="1" as="geometry">
            <mxPoint x="-118" y="63" as="targetPoint" />
          </mxGeometry>
        </mxCell>
        <mxCell id="QwzSk42xVicqDJRy7m8V-25" value="Перейти к регистрации" style="html=1;verticalAlign=bottom;endArrow=block;curved=0;rounded=0;entryX=0;entryY=0;entryDx=0;entryDy=5;fontSize=12;startSize=8;endSize=8;" parent="1" source="QwzSk42xVicqDJRy7m8V-23" target="QwzSk42xVicqDJRy7m8V-24" edge="1">
          <mxGeometry relative="1" as="geometry">
            <mxPoint x="-118" y="-7" as="sourcePoint" />
          </mxGeometry>
        </mxCell>
        <mxCell id="QwzSk42xVicqDJRy7m8V-29" value="Отобразить значения полей" style="html=1;verticalAlign=bottom;endArrow=open;dashed=1;endSize=8;curved=0;rounded=0;exitX=0;exitY=1;exitDx=0;exitDy=-5;fontSize=12;" parent="1" source="QwzSk42xVicqDJRy7m8V-27" target="QwzSk42xVicqDJRy7m8V-23" edge="1">
          <mxGeometry relative="1" as="geometry">
            <mxPoint x="-285" y="349" as="targetPoint" />
          </mxGeometry>
        </mxCell>
        <mxCell id="QwzSk42xVicqDJRy7m8V-28" value="Заполнить поля" style="html=1;verticalAlign=bottom;endArrow=block;curved=0;rounded=0;entryX=0;entryY=0;entryDx=0;entryDy=5;fontSize=12;startSize=8;endSize=8;" parent="1" source="QwzSk42xVicqDJRy7m8V-23" target="QwzSk42xVicqDJRy7m8V-27" edge="1">
          <mxGeometry relative="1" as="geometry">
            <mxPoint x="-118" y="65" as="sourcePoint" />
          </mxGeometry>
        </mxCell>
        <mxCell id="QwzSk42xVicqDJRy7m8V-34" value="Валидация значений полей" style="html=1;verticalAlign=bottom;endArrow=block;curved=0;rounded=0;entryX=0;entryY=0;entryDx=0;entryDy=5;fontSize=12;startSize=8;endSize=8;" parent="1" source="QwzSk42xVicqDJRy7m8V-41" target="QwzSk42xVicqDJRy7m8V-33" edge="1">
          <mxGeometry relative="1" as="geometry">
            <mxPoint x="-14" y="146" as="sourcePoint" />
          </mxGeometry>
        </mxCell>
        <mxCell id="QwzSk42xVicqDJRy7m8V-35" value="Вернуть результаты валидации" style="html=1;verticalAlign=bottom;endArrow=open;dashed=1;endSize=8;curved=0;rounded=0;exitX=0;exitY=1;exitDx=0;exitDy=-5;fontSize=12;" parent="1" source="QwzSk42xVicqDJRy7m8V-33" target="QwzSk42xVicqDJRy7m8V-41" edge="1">
          <mxGeometry relative="1" as="geometry">
            <mxPoint x="-19" y="175" as="targetPoint" />
          </mxGeometry>
        </mxCell>
        <mxCell id="QwzSk42xVicqDJRy7m8V-36" value="alt" style="shape=umlFrame;whiteSpace=wrap;html=1;pointerEvents=0;fontSize=16;" parent="1" vertex="1">
          <mxGeometry x="-282" y="185" width="448" height="299" as="geometry" />
        </mxCell>
        <mxCell id="QwzSk42xVicqDJRy7m8V-37" value="opt" style="shape=umlFrame;whiteSpace=wrap;html=1;pointerEvents=0;fontSize=16;" parent="1" vertex="1">
          <mxGeometry x="-260" y="233" width="410.5" height="94" as="geometry" />
        </mxCell>
        <mxCell id="QwzSk42xVicqDJRy7m8V-38" value="opt" style="shape=umlFrame;whiteSpace=wrap;html=1;pointerEvents=0;fontSize=16;" parent="1" vertex="1">
          <mxGeometry x="-260" y="381" width="410.5" height="94" as="geometry" />
        </mxCell>
        <mxCell id="QwzSk42xVicqDJRy7m8V-39" value="&lt;font style=&quot;font-size: 10px;&quot;&gt;[значения полей валидны]&lt;/font&gt;" style="text;strokeColor=none;fillColor=none;html=1;align=center;verticalAlign=middle;whiteSpace=wrap;rounded=0;fontSize=16;" parent="1" vertex="1">
          <mxGeometry x="-266" y="360" width="134" height="18" as="geometry" />
        </mxCell>
        <mxCell id="QwzSk42xVicqDJRy7m8V-43" value="Вывести сообщение об ошибке" style="html=1;verticalAlign=bottom;endArrow=open;dashed=1;endSize=8;curved=0;rounded=0;fontSize=12;" parent="1" edge="1">
          <mxGeometry relative="1" as="geometry">
            <mxPoint x="-304" y="288" as="targetPoint" />
            <mxPoint x="-48" y="288" as="sourcePoint" />
          </mxGeometry>
        </mxCell>
        <mxCell id="QwzSk42xVicqDJRy7m8V-42" value="Нажать &quot;Зарегистрироваться&quot;" style="html=1;verticalAlign=bottom;endArrow=block;curved=0;rounded=0;entryX=0;entryY=0;entryDx=0;entryDy=5;fontSize=12;startSize=8;endSize=8;" parent="1" source="QwzSk42xVicqDJRy7m8V-23" target="QwzSk42xVicqDJRy7m8V-41" edge="1">
          <mxGeometry relative="1" as="geometry">
            <mxPoint x="-118" y="133" as="sourcePoint" />
          </mxGeometry>
        </mxCell>
        <mxCell id="QwzSk42xVicqDJRy7m8V-44" value="&lt;font style=&quot;font-size: 10px;&quot;&gt;[значение хотя бы одного поля не валидно]&lt;/font&gt;" style="text;strokeColor=none;fillColor=none;html=1;align=center;verticalAlign=middle;whiteSpace=wrap;rounded=0;fontSize=16;" parent="1" vertex="1">
          <mxGeometry x="-263" y="215" width="209" height="18" as="geometry" />
        </mxCell>
        <mxCell id="QwzSk42xVicqDJRy7m8V-48" value="Отправить HTTP-запроса" style="html=1;verticalAlign=bottom;endArrow=block;curved=0;rounded=0;entryX=0;entryY=0;entryDx=0;entryDy=5;fontSize=12;startSize=8;endSize=8;" parent="1" source="QwzSk42xVicqDJRy7m8V-41" target="QwzSk42xVicqDJRy7m8V-47" edge="1">
          <mxGeometry relative="1" as="geometry">
            <mxPoint x="461" y="428" as="sourcePoint" />
          </mxGeometry>
        </mxCell>
        <mxCell id="QwzSk42xVicqDJRy7m8V-51" value="Валидация запроса" style="html=1;verticalAlign=bottom;endArrow=block;curved=0;rounded=0;entryX=0;entryY=0;entryDx=0;entryDy=5;fontSize=12;startSize=8;endSize=8;" parent="1" source="QwzSk42xVicqDJRy7m8V-47" target="QwzSk42xVicqDJRy7m8V-50" edge="1">
          <mxGeometry relative="1" as="geometry">
            <mxPoint x="750" y="443" as="sourcePoint" />
          </mxGeometry>
        </mxCell>
        <mxCell id="QwzSk42xVicqDJRy7m8V-57" value="Проверить наличие" style="html=1;verticalAlign=bottom;endArrow=block;curved=0;rounded=0;entryX=0;entryY=0;entryDx=0;entryDy=5;fontSize=12;startSize=8;endSize=8;" parent="1" source="QwzSk42xVicqDJRy7m8V-50" target="QwzSk42xVicqDJRy7m8V-56" edge="1">
          <mxGeometry x="0.0036" relative="1" as="geometry">
            <mxPoint x="1039" y="454" as="sourcePoint" />
            <mxPoint as="offset" />
          </mxGeometry>
        </mxCell>
        <mxCell id="QwzSk42xVicqDJRy7m8V-60" value="Запросить количество пользователей&lt;div&gt;&amp;nbsp;с указанным email&lt;/div&gt;" style="html=1;verticalAlign=bottom;endArrow=block;curved=0;rounded=0;entryX=0;entryY=0;entryDx=0;entryDy=5;fontSize=12;startSize=8;endSize=8;" parent="1" source="QwzSk42xVicqDJRy7m8V-56" target="QwzSk42xVicqDJRy7m8V-59" edge="1">
          <mxGeometry relative="1" as="geometry">
            <mxPoint x="1329" y="461" as="sourcePoint" />
          </mxGeometry>
        </mxCell>
        <mxCell id="QwzSk42xVicqDJRy7m8V-61" value="Передать число пользователей" style="html=1;verticalAlign=bottom;endArrow=open;dashed=1;endSize=8;curved=0;rounded=0;exitX=0;exitY=1;exitDx=0;exitDy=-5;fontSize=12;" parent="1" source="QwzSk42xVicqDJRy7m8V-59" target="QwzSk42xVicqDJRy7m8V-50" edge="1">
          <mxGeometry relative="1" as="geometry">
            <mxPoint x="1329" y="531" as="targetPoint" />
          </mxGeometry>
        </mxCell>
        <mxCell id="QwzSk42xVicqDJRy7m8V-67" value="alt" style="shape=umlFrame;whiteSpace=wrap;html=1;pointerEvents=0;fontSize=16;" parent="1" vertex="1">
          <mxGeometry x="405" y="535" width="617" height="262" as="geometry" />
        </mxCell>
        <mxCell id="QwzSk42xVicqDJRy7m8V-68" value="opt" style="shape=umlFrame;whiteSpace=wrap;html=1;pointerEvents=0;fontSize=16;" parent="1" vertex="1">
          <mxGeometry x="412" y="581" width="495.5" height="52" as="geometry" />
        </mxCell>
        <mxCell id="QwzSk42xVicqDJRy7m8V-71" value="opt" style="shape=umlFrame;whiteSpace=wrap;html=1;pointerEvents=0;fontSize=16;" parent="1" vertex="1">
          <mxGeometry x="412" y="649" width="561" height="137" as="geometry" />
        </mxCell>
        <mxCell id="QwzSk42xVicqDJRy7m8V-72" value="Уведомить об ошибке валидации" style="html=1;verticalAlign=bottom;endArrow=open;dashed=1;endSize=8;curved=0;rounded=0;fontSize=12;" parent="1" edge="1">
          <mxGeometry relative="1" as="geometry">
            <mxPoint x="541" y="602" as="targetPoint" />
            <mxPoint x="820" y="602" as="sourcePoint" />
          </mxGeometry>
        </mxCell>
        <mxCell id="QwzSk42xVicqDJRy7m8V-73" value="Уведомить об ошибке" style="html=1;verticalAlign=bottom;endArrow=open;dashed=1;endSize=8;curved=0;rounded=0;fontSize=12;" parent="1" edge="1">
          <mxGeometry relative="1" as="geometry">
            <mxPoint x="-38" y="616" as="targetPoint" />
            <mxPoint x="531" y="616" as="sourcePoint" />
          </mxGeometry>
        </mxCell>
        <mxCell id="QwzSk42xVicqDJRy7m8V-77" value="Вывести сообщение об ошибке" style="html=1;verticalAlign=bottom;endArrow=open;dashed=1;endSize=8;curved=0;rounded=0;exitX=0;exitY=1;exitDx=0;exitDy=-5;fontSize=12;" parent="1" edge="1">
          <mxGeometry relative="1" as="geometry">
            <mxPoint x="-304" y="638" as="targetPoint" />
            <mxPoint x="-48" y="638" as="sourcePoint" />
          </mxGeometry>
        </mxCell>
        <mxCell id="QwzSk42xVicqDJRy7m8V-78" value="&lt;font style=&quot;font-size: 10px;&quot;&gt;[пользователь найден]&lt;/font&gt;" style="text;strokeColor=none;fillColor=none;html=1;align=center;verticalAlign=middle;whiteSpace=wrap;rounded=0;fontSize=16;" parent="1" vertex="1">
          <mxGeometry x="404" y="560" width="134" height="18" as="geometry" />
        </mxCell>
        <mxCell id="QwzSk42xVicqDJRy7m8V-79" value="&lt;font style=&quot;font-size: 10px;&quot;&gt;[пользователь не найден]&lt;/font&gt;" style="text;strokeColor=none;fillColor=none;html=1;align=center;verticalAlign=middle;whiteSpace=wrap;rounded=0;fontSize=16;" parent="1" vertex="1">
          <mxGeometry x="403" y="631" width="134" height="18" as="geometry" />
        </mxCell>
        <mxCell id="QwzSk42xVicqDJRy7m8V-89" value="Вывести сообщение об ошибке" style="html=1;verticalAlign=bottom;endArrow=open;dashed=1;endSize=8;curved=0;rounded=0;fontSize=12;" parent="1" edge="1">
          <mxGeometry relative="1" as="geometry">
            <mxPoint x="-304" y="883" as="targetPoint" />
            <mxPoint x="-47" y="883" as="sourcePoint" />
          </mxGeometry>
        </mxCell>
        <mxCell id="QwzSk42xVicqDJRy7m8V-115" value="Отобразить страницу" style="html=1;verticalAlign=bottom;endArrow=open;dashed=1;endSize=8;curved=0;rounded=0;fontSize=12;" parent="1" edge="1">
          <mxGeometry relative="1" as="geometry">
            <mxPoint x="-304" y="982" as="targetPoint" />
            <mxPoint x="-47" y="982" as="sourcePoint" />
          </mxGeometry>
        </mxCell>
        <mxCell id="wxKLY9BmaaI-4q21X9Z2-5" value="" style="html=1;points=[[0,0,0,0,5],[0,1,0,0,-5],[1,0,0,0,5],[1,1,0,0,-5]];perimeter=orthogonalPerimeter;outlineConnect=0;targetShapes=umlLifeline;portConstraint=eastwest;newEdgeStyle={&quot;curved&quot;:0,&quot;rounded&quot;:0};fillColor=#ffe6cc;strokeColor=#d79b00;" parent="1" vertex="1">
          <mxGeometry x="537" y="689.5" width="10" height="40" as="geometry" />
        </mxCell>
        <mxCell id="wxKLY9BmaaI-4q21X9Z2-6" value="Вычислить хэш" style="html=1;align=left;spacingLeft=2;endArrow=block;rounded=0;edgeStyle=orthogonalEdgeStyle;curved=0;rounded=0;fontSize=12;startSize=8;endSize=8;" parent="1" edge="1">
          <mxGeometry relative="1" as="geometry">
            <mxPoint x="542" y="680.5" as="sourcePoint" />
            <Array as="points">
              <mxPoint x="572" y="710.5" />
            </Array>
            <mxPoint x="547" y="710.5" as="targetPoint" />
          </mxGeometry>
        </mxCell>
        <mxCell id="wxKLY9BmaaI-4q21X9Z2-9" value="Сообщить о результате создания записи" style="html=1;verticalAlign=bottom;endArrow=open;dashed=1;endSize=8;curved=0;rounded=0;exitX=0;exitY=1;exitDx=0;exitDy=-5;fontSize=12;" parent="1" edge="1">
          <mxGeometry relative="1" as="geometry">
            <mxPoint x="541" y="766" as="targetPoint" />
            <mxPoint x="1110" y="766" as="sourcePoint" />
          </mxGeometry>
        </mxCell>
        <mxCell id="wxKLY9BmaaI-4q21X9Z2-8" value="Создать запись пользователя" style="html=1;verticalAlign=bottom;endArrow=block;curved=0;rounded=0;entryX=0;entryY=0;entryDx=0;entryDy=5;fontSize=12;startSize=8;endSize=8;" parent="1" edge="1">
          <mxGeometry relative="1" as="geometry">
            <mxPoint x="541" y="744" as="sourcePoint" />
            <mxPoint x="1110" y="744" as="targetPoint" />
          </mxGeometry>
        </mxCell>
        <mxCell id="wxKLY9BmaaI-4q21X9Z2-11" value="Добавить запись в БД" style="html=1;verticalAlign=bottom;endArrow=block;curved=0;rounded=0;entryX=0;entryY=0;entryDx=0;entryDy=5;fontSize=12;startSize=8;endSize=8;" parent="1" edge="1">
          <mxGeometry relative="1" as="geometry">
            <mxPoint x="1120" y="737" as="sourcePoint" />
            <mxPoint x="1399" y="737" as="targetPoint" />
          </mxGeometry>
        </mxCell>
        <mxCell id="wxKLY9BmaaI-4q21X9Z2-12" value="Сообщить о результате добавления" style="html=1;verticalAlign=bottom;endArrow=open;dashed=1;endSize=8;curved=0;rounded=0;exitX=0;exitY=1;exitDx=0;exitDy=-5;fontSize=12;" parent="1" source="wxKLY9BmaaI-4q21X9Z2-10" target="wxKLY9BmaaI-4q21X9Z2-7" edge="1">
          <mxGeometry relative="1" as="geometry">
            <mxPoint x="1329" y="859" as="targetPoint" />
          </mxGeometry>
        </mxCell>
        <mxCell id="wxKLY9BmaaI-4q21X9Z2-13" value="alt" style="shape=umlFrame;whiteSpace=wrap;html=1;pointerEvents=0;" parent="1" vertex="1">
          <mxGeometry x="-328" y="785.5" width="370" height="216.5" as="geometry" />
        </mxCell>
        <mxCell id="wxKLY9BmaaI-4q21X9Z2-14" value="opt" style="shape=umlFrame;whiteSpace=wrap;html=1;pointerEvents=0;" parent="1" vertex="1">
          <mxGeometry x="-323" y="834" width="358" height="74" as="geometry" />
        </mxCell>
        <mxCell id="wxKLY9BmaaI-4q21X9Z2-15" value="opt" style="shape=umlFrame;whiteSpace=wrap;html=1;pointerEvents=0;" parent="1" vertex="1">
          <mxGeometry x="-324" y="923" width="358" height="74" as="geometry" />
        </mxCell>
        <mxCell id="wxKLY9BmaaI-4q21X9Z2-16" value="&lt;font style=&quot;font-size: 10px;&quot;&gt;[ошибка записи пользователя]&lt;/font&gt;" style="text;strokeColor=none;fillColor=none;html=1;align=center;verticalAlign=middle;whiteSpace=wrap;rounded=0;fontSize=16;" parent="1" vertex="1">
          <mxGeometry x="-296" y="812" width="163" height="18" as="geometry" />
        </mxCell>
        <mxCell id="wxKLY9BmaaI-4q21X9Z2-17" value="&lt;font style=&quot;font-size: 10px;&quot;&gt;[успешная запись пользователя]&lt;/font&gt;" style="text;strokeColor=none;fillColor=none;html=1;align=center;verticalAlign=middle;whiteSpace=wrap;rounded=0;fontSize=16;" parent="1" vertex="1">
          <mxGeometry x="-288" y="904" width="163" height="18" as="geometry" />
        </mxCell>
        <mxCell id="wxKLY9BmaaI-4q21X9Z2-18" value="Сообщить о результате добавления&amp;nbsp;&lt;div&gt;данных пользователя&lt;/div&gt;" style="html=1;verticalAlign=bottom;endArrow=open;dashed=1;endSize=8;curved=0;rounded=0;fontSize=12;" parent="1" source="QwzSk42xVicqDJRy7m8V-47" edge="1">
          <mxGeometry relative="1" as="geometry">
            <mxPoint x="-44" y="777" as="targetPoint" />
            <mxPoint x="525" y="777" as="sourcePoint" />
          </mxGeometry>
        </mxCell>
        <mxCell id="4fXgUiUyxsQmSm8FWOZm-1" value="Гость" style="text;strokeColor=none;align=center;fillColor=none;html=1;verticalAlign=middle;whiteSpace=wrap;rounded=0;fontSize=15;" vertex="1" parent="1">
          <mxGeometry x="-339" y="-116" width="60" height="30" as="geometry" />
        </mxCell>
      </root>
    </mxGraphModel>
  </diagram>
</mxfile>
